<?xml version="1.0" encoding="utf-8"?>
<!-- Generator: Adobe Illustrator 21.1.0, SVG Export Plug-In . SVG Version: 6.00 Build 0)  -->
<svg version="1.1" id="Layer_1" xmlns="http://www.w3.org/2000/svg" xmlns:xlink="http://www.w3.org/1999/xlink" x="0px" y="0px"
	 viewBox="0 0 203 90" style="enable-background:new 0 0 203 90;" xml:space="preserve">
<style type="text/css">
	.st0{fill:#6E6F72;}
	.st1{fill:#0DAF4B;}
</style>
<path class="st0" d="M169.3,66.9c-3.8,0-6.4-1.8-6.4-5v-0.2c0-3.7,3.1-5.7,8-5.7c2.8,0,5.4,0.6,7.4,1.5v2.1
	C178.4,64,174.7,66.9,169.3,66.9 M165.7,75c5.7,0,9.6-2.1,12.4-5.2v4.4h11.3V50.4c0-5.5-1.4-10-4.4-13.1c-2.9-2.9-7.5-4.6-13.9-4.6
	c-7,0-11.4,1.3-15.9,3.3l2.9,8.9c3.8-1.4,6.9-2.2,11.3-2.2c5.8,0,8.8,2.7,8.8,7.5v0.7c-2.9-1-5.9-1.7-10-1.7
	c-9.7,0-16.5,4.1-16.5,13.1v0.2C151.6,70.5,158,75,165.7,75 M110.2,74.2h11.6V51.3c0-5.5,2.8-8.3,7.3-8.3c4.4,0,7,2.8,7,8.3v22.9
	h11.6V47.6c0-9.4-5.1-15.2-13.9-15.2c-5.9,0-9.3,3.1-12,6.6v-5.8h-11.6V74.2z M77.3,50.5c0.9-5.3,4.1-8.7,8.9-8.7
	c4.9,0,8,3.5,8.7,8.7H77.3z M87.3,75.1c7.4,0,12.9-2.9,16.8-7.7l-6.7-5.9c-3.2,3-6.1,4.2-10,4.2c-5.2,0-8.9-2.8-10-8H106
	c0.1-1.1,0.2-2.1,0.2-3.1c0-11.6-6.3-22.3-20-22.3c-11.9,0-20.3,9.7-20.3,21.4v0.2C65.9,66.5,75,75.1,87.3,75.1"/>
<g>
	<polygon class="st1" points="21.9,32.7 35.1,32.7 44,59.3 53,32.7 61,32.7 61,14.2 13.1,14.2 13.1,73.9 38.2,73.9 	"/>
	<polygon class="st1" points="49.7,73.9 61,73.9 61,45.6 	"/>
</g>
</svg>
