<?xml version="1.0" encoding="utf-8"?>
<!-- Generator: Adobe Illustrator 22.0.0, SVG Export Plug-In . SVG Version: 6.00 Build 0)  -->
<svg version="1.1" id="Layer_2" xmlns="http://www.w3.org/2000/svg" xmlns:xlink="http://www.w3.org/1999/xlink" x="0px" y="0px"
	 viewBox="0 0 167.6 94.7" style="enable-background:new 0 0 167.6 94.7;" xml:space="preserve">
<style type="text/css">
	.st0{font-family:'Helvetica';}
	.st1{font-size:113.3154px;}
	.st2{fill:#333333;}
	.st3{font-size:26.7889px;}
	.st4{stroke:#231F20;stroke-linecap:round;stroke-miterlimit:10;}
	.st5{fill:#1A1A1A;}
	.st6{font-size:30.8712px;}
	.st7{font-size:44.1871px;}
	.st8{font-size:18.3464px;}
	.st9{font-size:9.5787px;}
	.st10{font-size:13.6937px;}
	.st11{font-size:7.7274px;}
	.st12{font-size:8.323px;}
</style>
<text transform="matrix(1 0 0 1 0.4043 83.2947)" class="st0 st1">mt</text>
<text transform="matrix(-1.2503 1.1756 -0.685 -0.7285 124.2223 20.5085)" class="st2 st0 st3">‘</text>
<ellipse class="st4" cx="144.3" cy="82.9" rx="14.7" ry="3.7"/>
<text transform="matrix(-1.3588 0.6096 -0.4093 -0.9124 127.1209 36.7881)" class="st5 st0 st6">‘</text>
<text transform="matrix(-1.3359 0.5993 -0.4093 -0.9124 145.2359 34.653)" class="st5 st0 st7">‘</text>
<text transform="matrix(-1.3583 -8.339498e-02 6.127952e-02 -0.9981 137.9574 67.8993)" class="st0 st8">‘</text>
<text transform="matrix(-1.4757 0.3016 -0.2003 -0.9797 143.8904 67.2072)" class="st5 st0 st9">‘</text>
<text transform="matrix(-1.9414 0.7867 -0.3756 -0.9268 142.7692 35.8203)" class="st5 st0 st10">‘</text>
<text transform="matrix(-1.4002 0.5072 -0.3406 -0.9402 137.715 55.8134)" class="st5 st0 st11">‘</text>
<text transform="matrix(-4.7395 1.7168 -0.3406 -0.9402 154.899 72.0294)" class="st5 st0 st12">‘</text>
</svg>
